<svg xmlns="http://www.w3.org/2000/svg" xmlns:xlink="http://www.w3.org/1999/xlink" width="500" zoomAndPan="magnify" viewBox="0 0 375 374.999991" height="500" preserveAspectRatio="xMidYMid meet" version="1.0"><defs><clipPath id="id1"><path d="M 161.277344 137.535156 L 273.777344 137.535156 L 273.777344 250.035156 L 161.277344 250.035156 Z M 161.277344 137.535156 " clip-rule="nonzero"/></clipPath><clipPath id="id2"><path d="M 87.78125 137.535156 L 200.28125 137.535156 L 200.28125 250.035156 L 87.78125 250.035156 Z M 87.78125 137.535156 " clip-rule="nonzero"/></clipPath></defs><rect x="-37.5" width="450" fill="#ffffff" y="-37.499999" height="449.999989" fill-opacity="1"/><rect x="-37.5" width="450" fill="#ffffff" y="-37.499999" height="449.999989" fill-opacity="1"/><rect x="-37.5" width="450" fill="#ffffff" y="-37.499999" height="449.999989" fill-opacity="1"/><rect x="-37.5" width="450" fill="#ffffff" y="-37.499999" height="449.999989" fill-opacity="1"/><g clip-path="url(#id1)"><path fill="#adc6e2" d="M 217.527344 137.535156 C 186.460938 137.535156 161.277344 162.71875 161.277344 193.785156 C 161.277344 224.851562 186.460938 250.035156 217.527344 250.035156 C 248.59375 250.035156 273.777344 224.851562 273.777344 193.785156 C 273.777344 162.71875 248.59375 137.535156 217.527344 137.535156 " fill-opacity="1" fill-rule="nonzero"/></g><g clip-path="url(#id2)"><path fill="#52749a" d="M 144.03125 137.535156 C 112.964844 137.535156 87.78125 162.71875 87.78125 193.785156 C 87.78125 224.851562 112.964844 250.035156 144.03125 250.035156 C 175.09375 250.035156 200.28125 224.851562 200.28125 193.785156 C 200.28125 162.71875 175.09375 137.535156 144.03125 137.535156 " fill-opacity="1" fill-rule="nonzero"/></g></svg>